<svg version="1.1" xmlns="http://www.w3.org/2000/svg" xmlns:xlink="http://www.w3.org/1999/xlink" width="1754" height="1241"><g fill="none" fill-rule="nonzero" stroke="none" stroke-width="none" stroke-linecap="none" stroke-linejoin="miter" stroke-miterlimit="10" stroke-dasharray="" stroke-dashoffset="0" font-family="none" font-weight="none" font-size="none" text-anchor="none" style="mix-blend-mode: normal"><g><text x="1267" y="706.5" fill="#000000" stroke="none" stroke-width="1" stroke-linecap="butt" font-family="Montserrat" font-weight="bold" font-size="60" text-anchor="middle"><tspan x="1267" dy="0">VECTOR</tspan><tspan x="1267" dy="72">MEMORIES</tspan></text><path d="M1555,424.5c0,-6.62742 5.37258,-12 12,-12c6.62742,0 12,5.37258 12,12c0,6.62742 -5.37258,12 -12,12c-6.62742,0 -12,-5.37258 -12,-12z" fill="#000000" stroke="none" stroke-width="1" stroke-linecap="butt"/><path d="M955,424.5c0,-6.62742 5.37258,-12 12,-12c6.62742,0 12,5.37258 12,12c0,6.62742 -5.37258,12 -12,12c-6.62742,0 -12,-5.37258 -12,-12z" fill="#000000" stroke="none" stroke-width="1" stroke-linecap="butt"/><path d="M955,524.5c0,-6.62742 5.37258,-12 12,-12c6.62742,0 12,5.37258 12,12c0,6.62742 -5.37258,12 -12,12c-6.62742,0 -12,-5.37258 -12,-12z" fill="#000000" stroke="none" stroke-width="1" stroke-linecap="butt"/><path d="M955,924.5c0,-6.62742 5.37258,-12 12,-12c6.62742,0 12,5.37258 12,12c0,6.62742 -5.37258,12 -12,12c-6.62742,0 -12,-5.37258 -12,-12z" fill="#000000" stroke="none" stroke-width="1" stroke-linecap="butt"/><path d="M955,1024.5c0,-6.62742 5.37258,-12 12,-12c6.62742,0 12,5.37258 12,12c0,6.62742 -5.37258,12 -12,12c-6.62742,0 -12,-5.37258 -12,-12z" fill="#000000" stroke="none" stroke-width="1" stroke-linecap="butt"/><path d="M755,1024.5c0,-6.62742 5.37258,-12 12,-12c6.62742,0 12,5.37258 12,12c0,6.62742 -5.37258,12 -12,12c-6.62742,0 -12,-5.37258 -12,-12z" fill="#000000" stroke="none" stroke-width="1" stroke-linecap="butt"/><path d="M755,424.5c0,-6.62742 5.37258,-12 12,-12c6.62742,0 12,5.37258 12,12c0,6.62742 -5.37258,12 -12,12c-6.62742,0 -12,-5.37258 -12,-12z" fill="#000000" stroke="none" stroke-width="1" stroke-linecap="butt"/><path d="M555,424.5c0,-6.62742 5.37258,-12 12,-12c6.62742,0 12,5.37258 12,12c0,6.62742 -5.37258,12 -12,12c-6.62742,0 -12,-5.37258 -12,-12z" fill="#000000" stroke="none" stroke-width="1" stroke-linecap="butt"/><path d="M955,524.5c0,-6.62742 5.37258,-12 12,-12c6.62742,0 12,5.37258 12,12c0,6.62742 -5.37258,12 -12,12c-6.62742,0 -12,-5.37258 -12,-12z" fill="#000000" stroke="none" stroke-width="1" stroke-linecap="butt"/><path d="M1555,524.5c0,-6.62742 5.37258,-12 12,-12c6.62742,0 12,5.37258 12,12c0,6.62742 -5.37258,12 -12,12c-6.62742,0 -12,-5.37258 -12,-12z" fill="#000000" stroke="none" stroke-width="1" stroke-linecap="butt"/><path d="M1555,924.5c0,-6.62742 5.37258,-12 12,-12c6.62742,0 12,5.37258 12,12c0,6.62742 -5.37258,12 -12,12c-6.62742,0 -12,-5.37258 -12,-12z" fill="#000000" stroke="none" stroke-width="1" stroke-linecap="butt"/><path d="M955,924.5c0,-6.62742 5.37258,-12 12,-12c6.62742,0 12,5.37258 12,12c0,6.62742 -5.37258,12 -12,12c-6.62742,0 -12,-5.37258 -12,-12z" fill="#000000" stroke="none" stroke-width="1" stroke-linecap="butt"/><path d="M967,1024.5v-100" fill="none" stroke="#000000" stroke-width="6" stroke-linecap="round"/><path d="M1035,924.5c0,-22.09139 17.90861,-40 40,-40c22.09139,0 40,17.90861 40,40c0,22.09139 -17.90861,40 -40,40c-22.09139,0 -40,-17.90861 -40,-40z" fill="none" stroke="#000000" stroke-width="6" stroke-linecap="round"/><path d="M1103.28,952.78l-56.56,-56.56" fill="none" stroke="#000000" stroke-width="6" stroke-linecap="round"/><path d="M1103.28,896.22l-56.56,56.56" fill="none" stroke="#000000" stroke-width="6" stroke-linecap="round"/><path d="M967,924.5h68" fill="none" stroke="#000000" stroke-width="6" stroke-linecap="round"/><path d="M1115,924.5l452,0" fill="none" stroke="#000000" stroke-width="6" stroke-linecap="round"/><path d="M1567,924.5v100" fill="none" stroke="#000000" stroke-width="6" stroke-linecap="round"/><path d="M1419,1024.5l-10,20l-20,-40l-20,40l-20,-40l-20,40l-10,-20" fill="none" stroke="#000000" stroke-width="6" stroke-linecap="round"/><path d="M1567,1024.5h-148" fill="none" stroke="#000000" stroke-width="6" stroke-linecap="round"/><path d="M1319,1024.5h-352" fill="none" stroke="#000000" stroke-width="6" stroke-linecap="round"/><path d="M1249,424.5c0,-22.09139 17.90861,-40 40,-40c22.09139,0 40,17.90861 40,40c0,22.09139 -17.90861,40 -40,40c-22.09139,0 -40,-17.90861 -40,-40z" fill="none" stroke="#000000" stroke-width="6" stroke-linecap="round"/><path d="M1249,424.5h80" fill="none" stroke="#000000" stroke-width="6" stroke-linecap="round"/><path d="M967,424.5h282" fill="none" stroke="#000000" stroke-width="6" stroke-linecap="round"/><path d="M1329,424.5h238" fill="none" stroke="#000000" stroke-width="6" stroke-linecap="round"/><path d="M1567,424.5v100" fill="none" stroke="#000000" stroke-width="6" stroke-linecap="round"/><path d="M1127,544.5v-40h80v40z" fill="none" stroke="#000000" stroke-width="6" stroke-linecap="round"/><path d="M1567,524.5l-360,0" fill="none" stroke="#000000" stroke-width="6" stroke-linecap="round"/><path d="M1127,524.5h-160" fill="none" stroke="#000000" stroke-width="6" stroke-linecap="round"/><path d="M967,524.5v-100" fill="none" stroke="#000000" stroke-width="6" stroke-linecap="round"/><path d="M539,1024.5l-80,40" fill="none" stroke="#000000" stroke-width="6" stroke-linecap="round"/><path d="M527,1024.5c0,-6.62742 5.37258,-12 12,-12c6.62742,0 12,5.37258 12,12c0,6.62742 -5.37258,12 -12,12c-6.62742,0 -12,-5.37258 -12,-12z" fill="#000000" stroke="none" stroke-width="1" stroke-linecap="butt"/><path d="M447,1024.5c0,-6.62742 5.37258,-12 12,-12c6.62742,0 12,5.37258 12,12c0,6.62742 -5.37258,12 -12,12c-6.62742,0 -12,-5.37258 -12,-12z" fill="#000000" stroke="none" stroke-width="1" stroke-linecap="butt"/><path d="M767,1024.5h-228" fill="none" stroke="#000000" stroke-width="6" stroke-linecap="round"/><path d="M459,1024.5h-292" fill="none" stroke="#000000" stroke-width="6" stroke-linecap="round"/><path d="M167,604.5l20,-10l-40,-20l40,-20l-40,-20l40,-20l-20,-10" fill="none" stroke="#000000" stroke-width="6" stroke-linecap="round"/><path d="M167,1024.5v-420" fill="none" stroke="#000000" stroke-width="6" stroke-linecap="round"/><path d="M167,504.5v-80" fill="none" stroke="#000000" stroke-width="6" stroke-linecap="round"/><path d="M419,384.5v80" fill="none" stroke="#000000" stroke-width="6" stroke-linecap="round"/><path d="M447,384.5v80" fill="none" stroke="#000000" stroke-width="6" stroke-linecap="round"/><path d="M167,424.5h252" fill="none" stroke="#000000" stroke-width="6" stroke-linecap="round"/><path d="M447,424.5h320" fill="none" stroke="#000000" stroke-width="6" stroke-linecap="round"/><path d="M747,952.5v-80h40v80z" fill="none" stroke="#000000" stroke-width="6" stroke-linecap="round"/><path d="M767,424.5v448" fill="none" stroke="#000000" stroke-width="6" stroke-linecap="round"/><path d="M767,952.5v72" fill="none" stroke="#000000" stroke-width="6" stroke-linecap="round"/><path d="M1154,1024.5c0,-6.62742 5.37258,-12 12,-12c6.62742,0 12,5.37258 12,12c0,6.62742 -5.37258,12 -12,12c-6.62742,0 -12,-5.37258 -12,-12z" fill="#000000" stroke="none" stroke-width="1" stroke-linecap="butt"/><path d="M1166,1024.5v53h33" fill="none" stroke="#000000" stroke-width="6" stroke-linecap="round"/><path d="M1199,1077.5c0,-6.62742 5.37258,-12 12,-12c6.62742,0 12,5.37258 12,12c0,6.62742 -5.37258,12 -12,12c-6.62742,0 -12,-5.37258 -12,-12z" fill="none" stroke="#000000" stroke-width="6" stroke-linecap="round"/><path d="M1394,424.5c0,-6.62742 5.37258,-12 12,-12c6.62742,0 12,5.37258 12,12c0,6.62742 -5.37258,12 -12,12c-6.62742,0 -12,-5.37258 -12,-12z" fill="#000000" stroke="none" stroke-width="1" stroke-linecap="butt"/><path d="M1406,424.5v-66" fill="none" stroke="#000000" stroke-width="6" stroke-linecap="round"/><path d="M1394,346.5c0,-6.62742 5.37258,-12 12,-12c6.62742,0 12,5.37258 12,12c0,6.62742 -5.37258,12 -12,12c-6.62742,0 -12,-5.37258 -12,-12z" fill="none" stroke="#000000" stroke-width="6" stroke-linecap="round"/><path d="M755,629.5c0,-6.62742 5.37258,-12 12,-12c6.62742,0 12,5.37258 12,12c0,6.62742 -5.37258,12 -12,12c-6.62742,0 -12,-5.37258 -12,-12z" fill="#000000" stroke="none" stroke-width="1" stroke-linecap="butt"/><path d="M767,629.5h56v26" fill="none" stroke="#000000" stroke-width="6" stroke-linecap="round"/><path d="M811,667.5c0,-6.62742 5.37258,-12 12,-12c6.62742,0 12,5.37258 12,12c0,6.62742 -5.37258,12 -12,12c-6.62742,0 -12,-5.37258 -12,-12z" fill="none" stroke="#000000" stroke-width="6" stroke-linecap="round"/><path d="M915,184.5v80" fill="none" stroke="#000000" stroke-width="6" stroke-linecap="round"/><path d="M943,184.5v80" fill="none" stroke="#000000" stroke-width="6" stroke-linecap="round"/><path d="M567,224.5h348" fill="none" stroke="#000000" stroke-width="6" stroke-linecap="round"/><path d="M943,224.5h624" fill="none" stroke="#000000" stroke-width="6" stroke-linecap="round"/><path d="M1145,224.5c0,-6.62742 5.37258,-12 12,-12c6.62742,0 12,5.37258 12,12c0,6.62742 -5.37258,12 -12,12c-6.62742,0 -12,-5.37258 -12,-12z" fill="#000000" stroke="none" stroke-width="1" stroke-linecap="butt"/><path d="M1157,224.5v-61h-37" fill="none" stroke="#000000" stroke-width="6" stroke-linecap="round"/><path d="M1096,163.5c0,-6.62742 5.37258,-12 12,-12c6.62742,0 12,5.37258 12,12c0,6.62742 -5.37258,12 -12,12c-6.62742,0 -12,-5.37258 -12,-12z" fill="none" stroke="#000000" stroke-width="6" stroke-linecap="round"/><path d="M1527,316.5c0,-22.09139 17.90861,-40 40,-40c22.09139,0 40,17.90861 40,40c0,22.09139 -17.90861,40 -40,40c-22.09139,0 -40,-17.90861 -40,-40z" fill="none" stroke="#000000" stroke-width="6" stroke-linecap="round"/><path d="M1527,316.5h80" fill="none" stroke="#000000" stroke-width="6" stroke-linecap="round"/><path d="M1567,224.5v52" fill="none" stroke="#000000" stroke-width="6" stroke-linecap="round"/><path d="M1567,356.5v68" fill="none" stroke="#000000" stroke-width="6" stroke-linecap="round"/><path d="M967,524.5h-100" fill="none" stroke="#000000" stroke-width="6" stroke-linecap="round"/><path d="M867,603.5l40,80" fill="none" stroke="#000000" stroke-width="6" stroke-linecap="round"/><path d="M855,603.5c0,-6.62742 5.37258,-12 12,-12c6.62742,0 12,5.37258 12,12c0,6.62742 -5.37258,12 -12,12c-6.62742,0 -12,-5.37258 -12,-12z" fill="#000000" stroke="none" stroke-width="1" stroke-linecap="butt"/><path d="M855,683.5c0,-6.62742 5.37258,-12 12,-12c6.62742,0 12,5.37258 12,12c0,6.62742 -5.37258,12 -12,12c-6.62742,0 -12,-5.37258 -12,-12z" fill="#000000" stroke="none" stroke-width="1" stroke-linecap="butt"/><path d="M867,524.5v79" fill="none" stroke="#000000" stroke-width="6" stroke-linecap="round"/><path d="M867,683.5v241" fill="none" stroke="#000000" stroke-width="6" stroke-linecap="round"/><path d="M867,924.5l100,0" fill="none" stroke="#000000" stroke-width="6" stroke-linecap="round"/><path d="M967,924.5v100" fill="none" stroke="#000000" stroke-width="6" stroke-linecap="round"/><path d="M527,297.5c0,-22.09139 17.90861,-40 40,-40c22.09139,0 40,17.90861 40,40c0,22.09139 -17.90861,40 -40,40c-22.09139,0 -40,-17.90861 -40,-40z" fill="none" stroke="#000000" stroke-width="6" stroke-linecap="round"/><path d="M527,297.5h80" fill="none" stroke="#000000" stroke-width="6" stroke-linecap="round"/><path d="M567,424.5v-87" fill="none" stroke="#000000" stroke-width="6" stroke-linecap="round"/><path d="M567,257.5v-33" fill="none" stroke="#000000" stroke-width="6" stroke-linecap="round"/></g></g></svg>